# xmcd
#
# Track frame offsets:
#	150
#	16953
#	32051
#	53136
#	66679
#	77041
#	102456
#	124865
#	138266
#	171814
#	198575
#	224675
#
# Disc length: 3210 seconds
#
# Revision: 1
# Processed by: cddbd v1.5.2PL0 Copyright (c) Steve Scherf et al.
# Submitted via: CDmax 2.0
#
DISCID=b50c880c
DTITLE=Wood, Wire And Words - Riding The Rails
DYEAR=2008
DGENRE=Bluegrass
TTITLE0=The Sawmill
TTITLE1=I'll Be Walking Tall
TTITLE2=Dustbowl Lament
TTITLE3=Born To Be An Outlaw
TTITLE4=I'm Going Home
TTITLE5=Billy Thomas
TTITLE6=The Oregon Trail
TTITLE7=When I'm Gone
TTITLE8=Riding The Rails
TTITLE9=At Night We Pray
TTITLE10=The Outlaw
TTITLE11=Moonshine
EXTD=Songwriter - David Rozzell
EXTT0=Written By David Rozzell
EXTT1=Written By David Rozzell
EXTT2=Written By David Rozzell
EXTT3=Written By David Rozzell
EXTT4=Written By David Rozzell
EXTT5=Written By David Rozzell
EXTT6=Written By David Rozzell
EXTT7=Written By David Rozzell
EXTT8=Written By David Rozzell
EXTT9=Written By David Rozzell
EXTT10=Written By David Rozzell
EXTT11=Written By David Rozzell
PLAYORDER=
